<svg width="141" height="140" viewBox="0 0 141 140" fill="none" xmlns="http://www.w3.org/2000/svg">
<path fill-rule="evenodd" clip-rule="evenodd" d="M62.6135 26.2959C45.105 30.1327 32 45.7319 32 64.392C32 73.0458 34.8186 81.0413 39.5878 87.5106L43.1536 78.0306C41.134 73.9149 40 69.2859 40 64.392C40 51.5082 47.8596 40.4601 59.0457 35.7809L62.6135 26.2959ZM82.9543 35.7809L79.3865 26.2959C96.895 30.1327 110 45.7319 110 64.392C110 73.0458 107.181 81.0413 102.412 87.5106L98.8464 78.0306C100.866 73.9149 102 69.2859 102 64.392C102 51.5082 94.1404 40.4601 82.9543 35.7809Z" fill="white"/>
<path fill-rule="evenodd" clip-rule="evenodd" d="M76.5 74.392L71 57.392L61 84.392L65 103.892L76.5 74.392ZM70.7727 95.892L76 104.392L80 84.642L77.7727 77.392L70.7727 95.892Z" fill="white"/>
<path fill-rule="evenodd" clip-rule="evenodd" d="M74.7452 26.9875L70.9999 17L67.2546 26.9875L66.7911 28.2233L72.8633 44.7531L93.1492 98.8489C97.3829 99.504 100.668 100.334 102.591 101.244L74.7452 26.9875ZM69.4046 44.0381L65.1767 32.5286L39.1323 101.98C40.7922 100.933 44.1895 99.9353 48.7421 99.1382L69.4046 44.0381Z" fill="#FF5757"/>
</svg>
