<svg width="800" height="800" viewBox="0 0 800 800" fill="none" xmlns="http://www.w3.org/2000/svg">
<path fill-rule="evenodd" clip-rule="evenodd" d="M342.754 131.61C217.317 157.316 122.967 268.319 122.967 401.358C122.967 463.825 143.768 521.433 178.82 567.635L198.787 514.529C179.807 481.137 168.967 442.513 168.967 401.358C168.967 301.155 233.225 215.96 322.782 184.732L342.754 131.61ZM471.973 184.08L452.11 131.25C578.438 156.264 673.684 267.688 673.684 401.358C673.684 464.479 652.445 522.64 616.724 569.083L596.867 516.267C616.464 482.48 627.684 443.229 627.684 401.358C627.684 300.449 562.517 214.76 471.973 184.08Z" fill="white"/>
<path d="M431.702 683.777L384.5 618.5L437.5 478L459.944 544.333L431.702 683.777Z" fill="white"/>
<path d="M446.009 475.413L447.239 472.259L446.197 469.039L407.364 349.011L398.932 322.946L389.417 348.635L318.812 539.268L317.869 541.815L318.415 544.476L346.657 682.156L353.124 713.684L364.814 683.697L446.009 475.413Z" fill="white" stroke="#222222" stroke-width="19"/>
<path fill-rule="evenodd" clip-rule="evenodd" d="M420.362 140.749L398.358 82.072L376.354 140.749L373.802 147.556L425.786 289.068L559.666 646.083C583.723 650.173 602.833 655.093 615.247 660.443L420.362 140.749ZM237.055 646.071C213.015 650.155 193.91 655.067 181.482 660.409L360.348 183.433L385.187 251.051L237.055 646.071Z" fill="#FF5151"/>
</svg>
