<svg width="871" height="795" viewBox="0 0 871 795" fill="none" xmlns="http://www.w3.org/2000/svg">
<g clip-path="url(#clip0_250_13)">
<circle cx="444.326" cy="389.358" r="252.358" stroke="#e5e7eb" stroke-width="46"/>
<path d="M444.326 142.242L204.27 781.214H684.381L444.326 142.242Z" fill="#111827" stroke="#111827" stroke-width="93"/>
<path d="M168.967 869.47L444.326 135.181L719.684 869.47" stroke="#e5e7eb" stroke-width="47"/>
<path d="M359.6 537.628L408.516 659.421H310.684L359.6 537.628Z" fill="#111827"/>
<path d="M529.051 537.628L577.967 659.421H480.135L529.051 537.628Z" fill="#111827"/>
<path d="M677.321 662.525C677.321 683.232 573.005 700.019 444.326 700.019C315.646 700.019 211.33 683.232 211.33 662.525C211.33 641.818 315.646 622.354 444.326 622.354C573.005 622.354 677.321 641.818 677.321 662.525Z" fill="#111827"/>
<path d="M426.674 721.2L200.74 661.186L56 908.302H815L737.335 654.126L426.674 721.2Z" fill="#111827"/>
<path d="M477.702 671.777L380.782 532.333L456.521 389.358L505.944 532.333L477.702 671.777Z" fill="#e5e7eb"/>
<path d="M485.953 461.052L486.342 460.056L486.012 459.039L447.18 339.011L444.517 330.78L441.512 338.893L370.908 529.525L370.61 530.33L370.782 531.17L399.024 668.849L401.066 678.806L404.758 669.336L485.953 461.052Z" fill="#e5e7eb" stroke="#111827" stroke-width="6"/>
<path d="M470.544 308.209L407 135.228" stroke="#111827" stroke-width="25"/>
</g>
<defs>
<clipPath id="clip0_250_13">
<rect width="871" height="795" fill="#111827"/>
</clipPath>
</defs>
</svg>
